<?xml version="1.0" encoding="UTF-8" standalone="no"?>
<svg
   xmlns:dc="http://purl.org/dc/elements/1.1/"
   xmlns:cc="http://creativecommons.org/ns#"
   xmlns:rdf="http://www.w3.org/1999/02/22-rdf-syntax-ns#"
   xmlns:svg="http://www.w3.org/2000/svg"
   xmlns="http://www.w3.org/2000/svg"
   id="svg28"
   version="1.1"
   style="overflow:visible"
   viewBox="-250 -250 500 500"
   height="2000px"
   width="2000px">
  <metadata
     id="metadata34">
    <rdf:RDF>
      <cc:Work
         rdf:about="">
        <dc:format>image/svg+xml</dc:format>
        <dc:type
           rdf:resource="http://purl.org/dc/dcmitype/StillImage" />
      </cc:Work>
    </rdf:RDF>
  </metadata>
  <defs
     id="defs32" />
  <rect
     id="rect2"
     fill-opacity="0"
     fill="rgb(0,0,0)"
     height="500"
     width="500"
     y="-250"
     x="-250" />
  <svg
     id="svg10"
     version="1.1"
     y="-250"
     x="-250"
     viewBox="-250 -250 500 500"
     height="500"
     width="500"
     style="overflow:visible">
    <g
       style="fill:#ffffff;stroke-linejoin:round"
       id="g8">
      <path
         style="fill:#ffffff;fill-opacity:1;stroke:#444444;stroke-width:6;stroke-linecap:butt;stroke-linejoin:round;stroke-opacity:1"
         id="path4"
         d="m 0,-48.85724 c -51.49345,0 -73.32661,63.64684 -76.06641,93.29688 -1.52999,16.55748 12.24335,22.29016 18.13086,7.82226 6.28581,-15.44666 14.50586,-27.58984 14.50586,-27.58984 0,0 -8.83063,72.92471 -4.064461,101.61719 2.40739,14.49262 23.2873,16.48799 26.75782,-1.03907 2.43604,-12.30265 5.184,-32.644531 20.73633,-32.644531 15.55231,0 18.30028,20.341881 20.73632,32.644531 3.47052,17.52706 24.35042,15.53169 26.75781,1.03907 4.76617,-28.692482 -4.06445,-101.617192 -4.06445,-101.617192 0,0 8.22005,12.14318 14.50586,27.58984 5.88751,14.4679 19.66085,8.73522 18.13086,-7.82226 -2.73979,-29.65004 -24.57296,-93.29688 -76.06641,-93.29688 z" />
      <path
         style="fill:#ffffff;fill-opacity:1;stroke:#444444;stroke-width:6;stroke-linecap:butt;stroke-linejoin:round;stroke-opacity:1"
         id="path6"
         d="m 57,-80.77951 a 56.999996,56.999996 0 0 1 -57,57 56.999996,56.999996 0 0 1 -57,-57 56.999996,56.999996 0 0 1 57,-57 56.999996,56.999996 0 0 1 57,57 z" />
    </g>
  </svg>
  <g
     style="stroke:#ffffff;stroke-width:2"
     id="g26">
    <path
       style="fill:#ff4bc8"
       id="path12"
       d="m -189.8,-185.6 c -1.9,0 -2.9,-0.9 -2.9,-2.4 0,-1.4 1.4,-2.4 3.4,-2.4 1.6,0 3.1,0.4 4.6,1 -1.3,2.4 -3,3.9 -5.1,3.9 z m -28.7,-2.7 c -1.6,0 -2.3,-1.9 -2.3,-3.7 0,-2.6 1.1,-6 2.7,-8.9 l 4.8,8.9 c -2,2.4 -3.9,3.8 -5.2,3.8 z m 15.1,-26.1 c -1,4.7 -2.3,8.9 -4,13 l -4,-8 c 2.2,-2 4.8,-3.8 8,-4.9 z m 37,28.4 -6.6,-6.3 c 0.7,-3.2 1.1,-6.8 1.1,-10.5 0,-12.4 -8.3,-20.8 -20,-21.6 l 1.1,-8.5 -11.2,-0.3 v 9.5 c -4.9,1.1 -9.1,3 -12.6,5.5 l -2.4,-9.7 -9.5,4.1 4.4,12.4 c -0.6,0.7 -1.1,1.4 -1.7,2.1 -3.5,4.7 -6.3,11.2 -6.3,19.1 0,8.3 5.1,12.5 11,12.5 9.5,0 19.2,-13.6 23.1,-25.6 1.1,-3.7 2.2,-8.2 3,-12.6 6.5,0.5 11.2,4.6 11.2,13.3 0,1.8 -0.1,3.7 -0.4,5.4 -2.3,-0.7 -4.7,-1.1 -7.4,-1.1 -7.2,0 -11.8,6 -11.8,11.2 0,6.8 4.9,10.4 12.2,10.4 5.8,0 9.9,-2.6 12.7,-6.7 l 4.3,4.9 z" />
    <path
       style="fill:#9b2dff"
       id="path14"
       d="m -98,-193 c -3,3 -6,4 -8,4 -1,0 -2,-1 -2,-2 0,-7 2,-16 2,-23 0,-6 -3,-10 -11,-10 -6,0 -14,5 -19,9 l 4,-5 -3,-3 2,-10 h -12 v 11 l -13,1 1,10 12,-1 v 4 l -14,19 6,9 7,-10 v 17 h 11 l -1,-28 c 5,-6 12,-12 17,-12 3,0 4,2 4,5 0,6 -2,15 -2,22 0,7 4,11 9,11 6,0 10,-2 13,-5 z" />
    <path
       style="fill:#ffbe28"
       id="path16"
       d="m -65,-184 c -3,0 -6,-1 -6,-4 0,-1 1,-3 3,-3 3,0 5,2 5,6 -1,0 -2,0 -3,0 z m 15,-48 -34,1 v 10 l 20,-1 -29,24 7,8 c 6,-8 13,-14 23,-14 7,0 13,4 13,9 0,3 -1,6 -4,8 -1,-6 -6,-11 -15,-11 -8,0 -13,5 -13,11 0,7 8,12 17,12 17,0 25,-9 25,-20 0,-10 -9,-17 -21,-17 -2,0 -3,0 -5,0 l 18,-13 z" />
    <path
       style="fill:#1950ff"
       id="path18"
       d="m 22,-212 c 6,-4 12,-9 18,-14 l -9,-8 c -4,5 -11,11 -18,15 -8,5 -19,10 -31,12 l 6,10 c 7,-2 15,-5 22,-9 l -1,30 h 13 z" />
    <path
       style="fill:#2df5ff"
       id="path20"
       d="m 97,-215 c -1,0 -3,1 -6,1 H 50 v 11 h 39 c -1,3 -3,6 -6,10 -5,5 -13,9 -23,12 l 8,9 c 9,-3 17,-7 24,-15 5,-6 8,-12 10,-18 0,-1 1,-2 1,-3 z m -40,-6 h 41 v -11 H 57 Z" />
    <path
       style="fill:#ff2828"
       id="path22"
       d="m 162,-230 -8,1 -31,-1 v 12 l 30,-1 c -1,4 -5,10 -9,15 -6,7 -17,15 -28,19 l 9,9 c 9,-4 18,-11 25,-18 l 16,19 9,-8 -18,-19 c 4,-6 8,-13 10,-18 1,-2 2,-4 3,-5 z" />
    <path
       style="fill:#00fa00"
       id="path24"
       d="m 231,-205 -28,-10 1,-18 h -13 v 58 h 13 l -1,-28 23,10 z" />
  </g>
</svg>
